<svg xmlns="http://www.w3.org/2000/svg" viewBox="0 0 64 64">
  <defs>
    <linearGradient id="g" x1="0" y1="0" x2="1" y2="1">
      <stop stop-color="#0b6c41"/>
      <stop offset="1" stop-color="#1ba665"/>
    </linearGradient>
  </defs>
  <rect width="64" height="64" rx="18" fill="url(#g)"/>
  <path d="M20 35c0-8 5-14 13-14 5 0 9 2 12 6-7-1-13 4-13 11 0 4 2 8 6 10-2 1-4 2-7 2-6 0-11-6-11-15Z" fill="#77e2a5"/>
  <path d="M40 13c7 2 11 7 12 14-7-1-12-5-12-14Z" fill="#77e2a5"/>
  <path d="M31 27c-5 4-7 10-5 17" fill="none" stroke="#fff" stroke-width="3.2" stroke-linecap="round"/>
</svg>
